<svg xmlns="http://www.w3.org/2000/svg" viewBox="0 0 800 400" role="img" aria-labelledby="title"><title id="title">Apollo 11 — schematic illustration</title><rect width="800" height="400" fill="#102a3a"/><circle cx="650" cy="60" r="200" fill="#183847"/><g fill="#dfc89a"><circle cx="140" cy="80" r="2"/><circle cx="650" cy="290" r="2"/><circle cx="220" cy="220" r="2"/><circle cx="580" cy="100" r="2"/><circle cx="710" cy="150" r="2"/></g><path d="M80 350Q380 290 720 350V400H80Z" fill="#426875"/><path d="M325 225H475V280H325Z" fill="#c67351"/><path d="M350 220V160L375 125H425L450 160V220Z" fill="#dfc89a"/><path d="M365 160L390 185H365ZM435 160L410 185H435Z" fill="#274d5e"/><path d="M335 260L280 335M465 260L520 335M370 280L350 340M430 280L450 340" stroke="#dfc89a" stroke-width="7"/><path d="M260 335H300M500 335H540M330 340H370M430 340H470" stroke="#ffd478" stroke-width="8"/></svg>
