<svg xmlns="http://www.w3.org/2000/svg" viewBox="0 0 800 400" role="img" aria-labelledby="title"><title id="title">C-130 Hercules — schematic illustration</title><rect width="800" height="400" fill="#102a3a"/><circle cx="650" cy="60" r="200" fill="#183847"/><path d="M90 345H710M90 55H240" stroke="#345364" stroke-width="2"/><path d="M385 150L165 170V205L390 192H410L635 205V170L415 150Z" fill="#dfc89a"/><rect x="223" y="135" width="24" height="75" rx="12" fill="#c67351"/><path d="M203 135H267" stroke="#6aabb4" stroke-width="6"/><rect x="298" y="135" width="24" height="75" rx="12" fill="#c67351"/><path d="M278 135H342" stroke="#6aabb4" stroke-width="6"/><rect x="478" y="135" width="24" height="75" rx="12" fill="#c67351"/><path d="M458 135H522" stroke="#6aabb4" stroke-width="6"/><rect x="553" y="135" width="24" height="75" rx="12" fill="#c67351"/><path d="M533 135H597" stroke="#6aabb4" stroke-width="6"/><path d="M395 280L320 305V320L400 308L480 320V305L405 280Z" fill="#c67351"/><path d="M400 60Q430 75 428 130V270L407 335H393L372 270V130Q370 75 400 60Z" fill="#849373"/><path d="M385 95H415V118H385Z" fill="#6aabb4"/></svg>
