<svg xmlns="http://www.w3.org/2000/svg" viewBox="0 0 800 400" role="img" aria-labelledby="title"><title id="title">Space Shuttle — schematic illustration</title><rect width="800" height="400" fill="#102a3a"/><circle cx="650" cy="60" r="200" fill="#183847"/><g fill="#dfc89a"><circle cx="140" cy="80" r="2"/><circle cx="650" cy="290" r="2"/><circle cx="220" cy="220" r="2"/><circle cx="580" cy="100" r="2"/><circle cx="710" cy="150" r="2"/></g><path d="M400 55Q425 85 423 150L440 200L550 300L430 288L420 325H380L370 288L250 300L360 200L377 150Q375 85 400 55Z" fill="#dfc89a" stroke="#426875" stroke-width="7"/><path d="M385 110H415V130H385Z" fill="#274d5e"/><rect x="386" y="155" width="28" height="115" rx="5" fill="#a98960"/><path d="M400 275V330" stroke="#c67351" stroke-width="10"/></svg>
